<svg width="545" height="252" viewBox="0 0 545 252" fill="none" xmlns="http://www.w3.org/2000/svg">
<rect width="545" height="252" fill="#E5E5E5"/>
<path d="M545 0H0V252H545V0Z" fill="#311D3F"/>
<path d="M232.221 154.362V95.8926H244.969V154.362H232.221ZM238.557 84.3441C237.438 84.3441 236.42 84.1557 235.504 83.7788C234.588 83.4019 233.799 82.8635 233.137 82.1636C232.425 81.5176 231.891 80.7369 231.534 79.8216C231.178 78.9064 231 77.9103 231 76.8336C231 75.7029 231.204 74.68 231.611 73.7647C232.018 72.8495 232.578 72.015 233.29 71.2612C234.003 70.5613 234.842 69.996 235.809 69.5653C236.725 69.1884 237.743 69 238.863 69C239.931 69 240.924 69.1884 241.84 69.5653C242.756 69.996 243.545 70.5613 244.206 71.2612C244.868 71.9073 245.402 72.7149 245.809 73.684C246.165 74.5993 246.344 75.5953 246.344 76.6721C246.344 77.7488 246.14 78.7718 245.733 79.7409C245.326 80.6561 244.766 81.4637 244.053 82.1636C243.341 82.8635 242.527 83.4019 241.611 83.7788C240.644 84.1557 239.626 84.3441 238.557 84.3441ZM302.069 109.702C304.155 110.294 306.165 111.156 308.099 112.287C309.982 113.363 311.662 114.709 313.137 116.324C314.613 117.886 315.809 119.689 316.725 121.735C317.59 123.781 318.023 126.069 318.023 128.6C318.023 131.561 317.336 134.576 315.962 137.645C314.588 140.66 312.578 143.432 309.931 145.963C307.234 148.439 303.901 150.458 299.931 152.02C295.962 153.581 291.382 154.362 286.191 154.362H264.511V73.5225H288.328C292.705 73.5225 296.547 74.007 299.855 74.9761C303.112 75.9991 305.835 77.3181 308.023 78.9333C310.211 80.5485 311.865 82.4328 312.985 84.5864C314.053 86.6861 314.588 88.8666 314.588 91.1278C314.588 93.066 314.257 94.8965 313.595 96.6194C312.883 98.3961 311.941 100.065 310.771 101.626C309.651 103.188 308.328 104.641 306.802 105.987C305.275 107.333 303.697 108.572 302.069 109.702ZM277.412 117.051V144.671H287.489C290.593 144.671 293.214 144.24 295.351 143.379C297.539 142.517 299.321 141.386 300.695 139.987C302.018 138.641 302.985 137.079 303.595 135.303C304.206 133.58 304.511 131.803 304.511 129.973C304.511 127.765 304.104 125.854 303.29 124.239C302.425 122.57 301.229 121.224 299.702 120.201C298.176 119.124 296.369 118.343 294.282 117.859C292.145 117.32 289.779 117.051 287.183 117.051H277.412ZM277.412 107.603H294.435C296.623 105.987 298.405 104.103 299.779 101.949C301.102 99.7959 301.763 97.3731 301.763 94.6812C301.763 91.1816 300.44 88.4089 297.794 86.3631C295.198 84.2633 291.483 83.2135 286.649 83.2135H277.412V107.603ZM346.573 154.362L326.725 95.8926H340.771L351.458 133.364L353.901 144.348H354.969L357.26 133.364L368.176 95.8926H380.084L350.389 184H338.71L350.389 154.362H346.573ZM398.863 138.21V105.422H387.794L388.71 99.1229C391.458 98.423 393.646 97.5885 395.275 96.6194C396.954 95.7041 398.328 94.5735 399.397 93.2275C400.517 91.8816 401.483 90.2664 402.298 88.382C403.112 86.4438 404.053 84.0749 405.122 81.2753H411.229V95.8926H431.076L428.863 105.422H411.534V135.545C411.534 137.375 411.789 138.91 412.298 140.148C412.756 141.386 413.443 142.382 414.359 143.136C415.275 143.89 416.369 144.455 417.641 144.832C418.914 145.155 420.338 145.317 421.916 145.317C423.443 145.317 424.969 145.182 426.496 144.913C428.023 144.59 429.473 144.159 430.847 143.621V150.404C428.455 152.074 425.911 153.339 423.214 154.2C420.517 155.062 417.794 155.492 415.046 155.492C409.804 155.492 405.809 153.985 403.061 150.97C400.262 147.955 398.863 143.702 398.863 138.21ZM489.015 142.329V149.032C487.489 150.162 485.86 151.131 484.13 151.939C482.349 152.746 480.517 153.419 478.634 153.958C476.751 154.496 474.868 154.9 472.985 155.169C471.153 155.385 469.397 155.492 467.718 155.492C463.85 155.492 460.262 154.873 456.954 153.635C453.595 152.397 450.695 150.566 448.252 148.143C445.809 145.667 443.901 142.652 442.527 139.098C441.102 135.545 440.389 131.48 440.389 126.904C440.389 122.004 441.178 117.563 442.756 113.579C444.333 109.595 446.42 106.23 449.015 103.484C451.662 100.684 454.715 98.5307 458.176 97.0232C461.636 95.5157 465.249 94.7619 469.015 94.7619C472.12 94.7619 475.02 95.3003 477.718 96.3771C480.415 97.5077 482.756 99.1229 484.74 101.223C486.725 103.376 488.277 106.041 489.397 109.218C490.466 112.448 491 116.163 491 120.362C491 121.439 490.975 122.543 490.924 123.673C490.822 124.858 490.669 125.989 490.466 127.065H453.519C453.519 130.026 454.003 132.665 454.969 134.98C455.987 137.241 457.387 139.152 459.168 140.713C461 142.221 463.188 143.379 465.733 144.186C468.277 144.94 471.076 145.317 474.13 145.317C474.995 145.317 476.013 145.29 477.183 145.236C478.354 145.182 479.6 145.048 480.924 144.832C482.247 144.563 483.595 144.24 484.969 143.863C486.344 143.486 487.692 142.975 489.015 142.329ZM453.519 120.524H479.321C479.321 117.886 478.99 115.544 478.328 113.498C477.667 111.452 476.776 109.756 475.656 108.41C474.588 107.064 473.316 106.041 471.84 105.341C470.313 104.641 468.71 104.291 467.031 104.291C465.097 104.291 463.316 104.695 461.687 105.503C460.059 106.364 458.634 107.522 457.412 108.975C456.191 110.429 455.249 112.125 454.588 114.063C453.875 116.055 453.519 118.209 453.519 120.524Z" fill="white"/>
<path d="M78.5142 131.536L60 156.745L78.5142 181.954H115.545L134.061 156.745L115.545 131.536H78.5142ZM115.545 119.418L134.061 94.2089L115.545 69H78.5142L60 94.2089L78.5142 119.418H115.545ZM186.132 101.043H149.102L130.586 126.25L149.102 151.461H186.132L204.649 126.25L186.132 101.043Z" fill="#E8185E"/>
<path d="M188.895 96.0427H146.689L125.588 124.774L146.691 153.507H188.897L210 124.774L188.895 96.0427ZM186.308 149.984H149.278L130.762 124.776L149.278 99.5666H186.308L204.822 124.776L186.308 149.984ZM76.103 126.538L55 155.269L76.103 184H118.307L139.41 155.269L118.307 126.538H76.103ZM115.72 180.478H78.6898L60.1757 155.269L78.6898 130.06H115.72L134.236 155.269L115.72 180.478ZM118.307 121.466L139.41 92.7344L118.307 64H76.103L55 92.7328L76.103 121.464H118.307V121.466ZM78.6898 67.5239H115.72L134.236 92.7328L115.72 117.942H78.6898L60.1757 92.7328L78.6898 67.5239Z" fill="#E8185E"/>
</svg>
